<?xml version="1.0" encoding="UTF-8" standalone="no"?>
<!DOCTYPE svg PUBLIC "-//W3C//DTD SVG 1.1//EN"
 "http://www.w3.org/Graphics/SVG/1.1/DTD/svg11.dtd">
<!-- Generated by graphviz version 2.47.0 (20210316.0004)
 -->
<!-- Title: dependencies Pages: 1 -->
<svg width="571pt" height="284pt"
 viewBox="0.00 0.00 571.00 284.00" xmlns="http://www.w3.org/2000/svg" xmlns:xlink="http://www.w3.org/1999/xlink">
<g id="graph0" class="graph" transform="scale(1 1) rotate(0) translate(4 280)">
<title>dependencies</title>
<polygon fill="white" stroke="transparent" points="-4,4 -4,-280 567,-280 567,4 -4,4"/>
<text text-anchor="start" x="260.51" y="-42.4" font-family="sans-serif" font-weight="bold" font-size="14.00">Legend</text>
<polygon fill="#ffffb3" stroke="transparent" points="47.5,-10 47.5,-30 67.5,-30 67.5,-10 47.5,-10"/>
<text text-anchor="start" x="71.13" y="-15.4" font-family="sans-serif" font-size="14.00"> &#160;Declarations</text>
<polygon fill="#8dd3c7" stroke="transparent" points="160.5,-10 160.5,-30 180.5,-30 180.5,-10 160.5,-10"/>
<text text-anchor="start" x="184.23" y="-15.4" font-family="sans-serif" font-size="14.00"> &#160;Module</text>
<polygon fill="#80b1d3" stroke="transparent" points="246.5,-10 246.5,-30 266.5,-30 266.5,-10 246.5,-10"/>
<text text-anchor="start" x="270.28" y="-15.4" font-family="sans-serif" font-size="14.00"> &#160;Bootstrap</text>
<polygon fill="#fdb462" stroke="transparent" points="343.5,-10 343.5,-30 363.5,-30 363.5,-10 343.5,-10"/>
<text text-anchor="start" x="367.17" y="-15.4" font-family="sans-serif" font-size="14.00"> &#160;Providers</text>
<polygon fill="#fb8072" stroke="transparent" points="439.5,-10 439.5,-30 459.5,-30 459.5,-10 439.5,-10"/>
<text text-anchor="start" x="463.23" y="-15.4" font-family="sans-serif" font-size="14.00"> &#160;Exports</text>
<g id="clust1" class="cluster">
<title>cluster_CoreModule</title>
<polygon fill="none" stroke="black" stroke-dasharray="1,5" points="8,-70 8,-268 555,-268 555,-70 8,-70"/>
</g>
<g id="clust2" class="cluster">
<title>cluster_CoreModule_declarations</title>
<polygon fill="none" stroke="black" points="151,-78 151,-130 543,-130 543,-78 151,-78"/>
</g>
<g id="clust7" class="cluster">
<title>cluster_CoreModule_exports</title>
<polygon fill="none" stroke="black" points="16,-208 16,-260 547,-260 547,-208 16,-208"/>
</g>
<g id="clust6" class="cluster">
<title>cluster_CoreModule_imports</title>
<polygon fill="none" stroke="black" points="21,-78 21,-130 143,-130 143,-78 21,-78"/>
</g>
<!-- NavbarComponent -->
<g id="node1" class="node">
<title>NavbarComponent</title>
<polygon fill="#ffffb3" stroke="black" points="535.03,-122 412.97,-122 412.97,-86 535.03,-86 535.03,-122"/>
<text text-anchor="middle" x="474" y="-99.8" font-family="Times,serif" font-size="14.00">NavbarComponent</text>
</g>
<!-- CoreModule -->
<g id="node4" class="node">
<title>CoreModule</title>
<polygon fill="#8dd3c7" stroke="black" points="267.26,-187 264.26,-191 243.26,-191 240.26,-187 180.74,-187 180.74,-151 267.26,-151 267.26,-187"/>
<text text-anchor="middle" x="224" y="-164.8" font-family="Times,serif" font-size="14.00">CoreModule</text>
</g>
<!-- NavbarComponent&#45;&gt;CoreModule -->
<g id="edge1" class="edge">
<title>NavbarComponent&#45;&gt;CoreModule</title>
<path fill="none" stroke="black" d="M420.75,-122.27C420.75,-140.56 420.75,-166 420.75,-166 420.75,-166 277.67,-166 277.67,-166"/>
<polygon fill="black" stroke="black" points="277.67,-162.5 267.67,-166 277.67,-169.5 277.67,-162.5"/>
</g>
<!-- TabDirective -->
<g id="node2" class="node">
<title>TabDirective</title>
<polygon fill="#ffffb3" stroke="black" points="394.85,-122 305.15,-122 305.15,-86 394.85,-86 394.85,-122"/>
<text text-anchor="middle" x="350" y="-99.8" font-family="Times,serif" font-size="14.00">TabDirective</text>
</g>
<!-- TabDirective&#45;&gt;CoreModule -->
<g id="edge2" class="edge">
<title>TabDirective&#45;&gt;CoreModule</title>
<path fill="none" stroke="black" d="M350,-122.01C350,-138.05 350,-159 350,-159 350,-159 277.36,-159 277.36,-159"/>
<polygon fill="black" stroke="black" points="277.36,-155.5 267.36,-159 277.36,-162.5 277.36,-155.5"/>
</g>
<!-- TmstmpComponent -->
<g id="node3" class="node">
<title>TmstmpComponent</title>
<polygon fill="#ffffb3" stroke="black" points="287,-122 159,-122 159,-86 287,-86 287,-122"/>
<text text-anchor="middle" x="223" y="-99.8" font-family="Times,serif" font-size="14.00">TmstmpComponent</text>
</g>
<!-- TmstmpComponent&#45;&gt;CoreModule -->
<g id="edge3" class="edge">
<title>TmstmpComponent&#45;&gt;CoreModule</title>
<path fill="none" stroke="black" d="M224,-122.11C224,-122.11 224,-140.99 224,-140.99"/>
<polygon fill="black" stroke="black" points="220.5,-140.99 224,-150.99 227.5,-140.99 220.5,-140.99"/>
</g>
<!-- MaterialModule  -->
<g id="node6" class="node">
<title>MaterialModule </title>
<polygon fill="#fb8072" stroke="black" points="539.47,-252 428.53,-252 428.53,-216 539.47,-216 539.47,-252"/>
<text text-anchor="middle" x="484" y="-229.8" font-family="Times,serif" font-size="14.00">MaterialModule </text>
</g>
<!-- CoreModule&#45;&gt;MaterialModule  -->
<g id="edge5" class="edge">
<title>CoreModule&#45;&gt;MaterialModule </title>
<path fill="none" stroke="black" stroke-dasharray="5,2" d="M267.48,-173C341.01,-173 482.01,-173 482.01,-173 482.01,-173 482.01,-205.7 482.01,-205.7"/>
<polygon fill="black" stroke="black" points="478.51,-205.7 482.01,-215.7 485.51,-205.7 478.51,-205.7"/>
</g>
<!-- NavbarComponent  -->
<g id="node7" class="node">
<title>NavbarComponent </title>
<polygon fill="#fb8072" stroke="black" points="411.03,-252 284.97,-252 284.97,-216 411.03,-216 411.03,-252"/>
<text text-anchor="middle" x="348" y="-229.8" font-family="Times,serif" font-size="14.00">NavbarComponent </text>
</g>
<!-- CoreModule&#45;&gt;NavbarComponent  -->
<g id="edge6" class="edge">
<title>CoreModule&#45;&gt;NavbarComponent </title>
<path fill="none" stroke="black" stroke-dasharray="5,2" d="M267.57,-180C282.74,-180 296.04,-180 296.04,-180 296.04,-180 296.04,-205.72 296.04,-205.72"/>
<polygon fill="black" stroke="black" points="292.54,-205.72 296.04,-215.72 299.54,-205.72 292.54,-205.72"/>
</g>
<!-- TabDirective  -->
<g id="node8" class="node">
<title>TabDirective </title>
<polygon fill="#fb8072" stroke="black" points="266.85,-252 173.15,-252 173.15,-216 266.85,-216 266.85,-252"/>
<text text-anchor="middle" x="220" y="-229.8" font-family="Times,serif" font-size="14.00">TabDirective </text>
</g>
<!-- CoreModule&#45;&gt;TabDirective  -->
<g id="edge7" class="edge">
<title>CoreModule&#45;&gt;TabDirective </title>
<path fill="none" stroke="black" stroke-dasharray="5,2" d="M223.65,-187.11C223.65,-187.11 223.65,-205.99 223.65,-205.99"/>
<polygon fill="black" stroke="black" points="220.15,-205.99 223.65,-215.99 227.15,-205.99 220.15,-205.99"/>
</g>
<!-- TmstmpComponent  -->
<g id="node9" class="node">
<title>TmstmpComponent </title>
<polygon fill="#fb8072" stroke="black" points="155.5,-252 24.5,-252 24.5,-216 155.5,-216 155.5,-252"/>
<text text-anchor="middle" x="90" y="-229.8" font-family="Times,serif" font-size="14.00">TmstmpComponent </text>
</g>
<!-- CoreModule&#45;&gt;TmstmpComponent  -->
<g id="edge8" class="edge">
<title>CoreModule&#45;&gt;TmstmpComponent </title>
<path fill="none" stroke="black" stroke-dasharray="5,2" d="M180.68,-175C162.55,-175 145.62,-175 145.62,-175 145.62,-175 145.62,-205.98 145.62,-205.98"/>
<polygon fill="black" stroke="black" points="142.12,-205.98 145.62,-215.98 149.12,-205.98 142.12,-205.98"/>
</g>
<!-- MaterialModule -->
<g id="node5" class="node">
<title>MaterialModule</title>
<polygon fill="#8dd3c7" stroke="black" points="135.47,-122 132.47,-126 111.47,-126 108.47,-122 28.53,-122 28.53,-86 135.47,-86 135.47,-122"/>
<text text-anchor="middle" x="82" y="-99.8" font-family="Times,serif" font-size="14.00">MaterialModule</text>
</g>
<!-- MaterialModule&#45;&gt;CoreModule -->
<g id="edge4" class="edge">
<title>MaterialModule&#45;&gt;CoreModule</title>
<path fill="none" stroke="black" d="M82,-122.02C82,-139.37 82,-163 82,-163 82,-163 170.62,-163 170.62,-163"/>
<polygon fill="black" stroke="black" points="170.62,-166.5 180.62,-163 170.62,-159.5 170.62,-166.5"/>
</g>
</g>
</svg>
