<?xml version="1.0" encoding="UTF-8" standalone="no"?>
<!DOCTYPE svg PUBLIC "-//W3C//DTD SVG 1.1//EN"
 "http://www.w3.org/Graphics/SVG/1.1/DTD/svg11.dtd">
<!-- Generated by graphviz version 2.47.0 (20210316.0004)
 -->
<!-- Title: dependencies Pages: 1 -->
<svg width="1312pt" height="284pt"
 viewBox="0.00 0.00 1312.00 284.00" xmlns="http://www.w3.org/2000/svg" xmlns:xlink="http://www.w3.org/1999/xlink">
<g id="graph0" class="graph" transform="scale(1 1) rotate(0) translate(4 280)">
<title>dependencies</title>
<polygon fill="white" stroke="transparent" points="-4,4 -4,-280 1308,-280 1308,4 -4,4"/>
<text text-anchor="start" x="631.01" y="-42.4" font-family="sans-serif" font-weight="bold" font-size="14.00">Legend</text>
<polygon fill="#ffffb3" stroke="transparent" points="418,-10 418,-30 438,-30 438,-10 418,-10"/>
<text text-anchor="start" x="441.63" y="-15.4" font-family="sans-serif" font-size="14.00"> &#160;Declarations</text>
<polygon fill="#8dd3c7" stroke="transparent" points="531,-10 531,-30 551,-30 551,-10 531,-10"/>
<text text-anchor="start" x="554.73" y="-15.4" font-family="sans-serif" font-size="14.00"> &#160;Module</text>
<polygon fill="#80b1d3" stroke="transparent" points="617,-10 617,-30 637,-30 637,-10 617,-10"/>
<text text-anchor="start" x="640.78" y="-15.4" font-family="sans-serif" font-size="14.00"> &#160;Bootstrap</text>
<polygon fill="#fdb462" stroke="transparent" points="714,-10 714,-30 734,-30 734,-10 714,-10"/>
<text text-anchor="start" x="737.67" y="-15.4" font-family="sans-serif" font-size="14.00"> &#160;Providers</text>
<polygon fill="#fb8072" stroke="transparent" points="810,-10 810,-30 830,-30 830,-10 810,-10"/>
<text text-anchor="start" x="833.73" y="-15.4" font-family="sans-serif" font-size="14.00"> &#160;Exports</text>
<g id="clust1" class="cluster">
<title>cluster_CoreModule</title>
<polygon fill="none" stroke="black" stroke-dasharray="1,5" points="8,-70 8,-268 1296,-268 1296,-70 8,-70"/>
</g>
<g id="clust14" class="cluster">
<title>cluster_CoreModule_exports</title>
<polygon fill="none" stroke="black" points="16,-208 16,-260 1288,-260 1288,-208 16,-208"/>
</g>
<g id="clust13" class="cluster">
<title>cluster_CoreModule_imports</title>
<polygon fill="none" stroke="black" points="1151,-78 1151,-130 1273,-130 1273,-78 1151,-78"/>
</g>
<g id="clust2" class="cluster">
<title>cluster_CoreModule_declarations</title>
<polygon fill="none" stroke="black" points="35,-78 35,-130 1143,-130 1143,-78 35,-78"/>
</g>
<!-- BunruiPipe -->
<g id="node1" class="node">
<title>BunruiPipe</title>
<polygon fill="#ffffb3" stroke="black" points="1134.78,-122 1055.22,-122 1055.22,-86 1134.78,-86 1134.78,-122"/>
<text text-anchor="middle" x="1095" y="-99.8" font-family="Times,serif" font-size="14.00">BunruiPipe</text>
</g>
<!-- CoreModule -->
<g id="node11" class="node">
<title>CoreModule</title>
<polygon fill="#8dd3c7" stroke="black" points="726.26,-187 723.26,-191 702.26,-191 699.26,-187 639.74,-187 639.74,-151 726.26,-151 726.26,-187"/>
<text text-anchor="middle" x="683" y="-164.8" font-family="Times,serif" font-size="14.00">CoreModule</text>
</g>
<!-- BunruiPipe&#45;&gt;CoreModule -->
<g id="edge1" class="edge">
<title>BunruiPipe&#45;&gt;CoreModule</title>
<path fill="none" stroke="black" d="M1071.17,-122.3C1071.17,-140.27 1071.17,-165 1071.17,-165 1071.17,-165 736.4,-165 736.4,-165"/>
<polygon fill="black" stroke="black" points="736.4,-161.5 726.4,-165 736.4,-168.5 736.4,-161.5"/>
</g>
<!-- JdatePipe -->
<g id="node2" class="node">
<title>JdatePipe</title>
<polygon fill="#ffffb3" stroke="black" points="1036.65,-122 967.35,-122 967.35,-86 1036.65,-86 1036.65,-122"/>
<text text-anchor="middle" x="1002" y="-99.8" font-family="Times,serif" font-size="14.00">JdatePipe</text>
</g>
<!-- JdatePipe&#45;&gt;CoreModule -->
<g id="edge2" class="edge">
<title>JdatePipe&#45;&gt;CoreModule</title>
<path fill="none" stroke="black" d="M971.97,-122.04C971.97,-138.73 971.97,-161 971.97,-161 971.97,-161 736.57,-161 736.57,-161"/>
<polygon fill="black" stroke="black" points="736.57,-157.5 726.57,-161 736.57,-164.5 736.57,-157.5"/>
</g>
<!-- McdtxtPipe -->
<g id="node3" class="node">
<title>McdtxtPipe</title>
<polygon fill="#ffffb3" stroke="black" points="949.83,-122 868.17,-122 868.17,-86 949.83,-86 949.83,-122"/>
<text text-anchor="middle" x="909" y="-99.8" font-family="Times,serif" font-size="14.00">McdtxtPipe</text>
</g>
<!-- McdtxtPipe&#45;&gt;CoreModule -->
<g id="edge3" class="edge">
<title>McdtxtPipe&#45;&gt;CoreModule</title>
<path fill="none" stroke="black" d="M924.3,-122.28C924.3,-137.95 924.3,-158 924.3,-158 924.3,-158 736.42,-158 736.42,-158"/>
<polygon fill="black" stroke="black" points="736.42,-154.5 726.42,-158 736.42,-161.5 736.42,-154.5"/>
</g>
<!-- ModetxtPipe -->
<g id="node4" class="node">
<title>ModetxtPipe</title>
<polygon fill="#ffffb3" stroke="black" points="850.33,-122 761.67,-122 761.67,-86 850.33,-86 850.33,-122"/>
<text text-anchor="middle" x="806" y="-99.8" font-family="Times,serif" font-size="14.00">ModetxtPipe</text>
</g>
<!-- ModetxtPipe&#45;&gt;CoreModule -->
<g id="edge4" class="edge">
<title>ModetxtPipe&#45;&gt;CoreModule</title>
<path fill="none" stroke="black" d="M821.47,-122.12C821.47,-136.78 821.47,-155 821.47,-155 821.47,-155 736.43,-155 736.43,-155"/>
<polygon fill="black" stroke="black" points="736.43,-151.5 726.43,-155 736.43,-158.5 736.43,-151.5"/>
</g>
<!-- NavbarComponent -->
<g id="node5" class="node">
<title>NavbarComponent</title>
<polygon fill="#ffffb3" stroke="black" points="744.03,-122 621.97,-122 621.97,-86 744.03,-86 744.03,-122"/>
<text text-anchor="middle" x="683" y="-99.8" font-family="Times,serif" font-size="14.00">NavbarComponent</text>
</g>
<!-- NavbarComponent&#45;&gt;CoreModule -->
<g id="edge5" class="edge">
<title>NavbarComponent&#45;&gt;CoreModule</title>
<path fill="none" stroke="black" d="M683,-122.11C683,-122.11 683,-140.99 683,-140.99"/>
<polygon fill="black" stroke="black" points="679.5,-140.99 683,-150.99 686.5,-140.99 679.5,-140.99"/>
</g>
<!-- NuminputDirective -->
<g id="node6" class="node">
<title>NuminputDirective</title>
<polygon fill="#ffffb3" stroke="black" points="603.36,-122 478.64,-122 478.64,-86 603.36,-86 603.36,-122"/>
<text text-anchor="middle" x="541" y="-99.8" font-family="Times,serif" font-size="14.00">NuminputDirective</text>
</g>
<!-- NuminputDirective&#45;&gt;CoreModule -->
<g id="edge6" class="edge">
<title>NuminputDirective&#45;&gt;CoreModule</title>
<path fill="none" stroke="black" d="M560.98,-122.12C560.98,-136.78 560.98,-155 560.98,-155 560.98,-155 629.64,-155 629.64,-155"/>
<polygon fill="black" stroke="black" points="629.64,-158.5 639.64,-155 629.64,-151.5 629.64,-158.5"/>
</g>
<!-- StaffPipe -->
<g id="node7" class="node">
<title>StaffPipe</title>
<polygon fill="#ffffb3" stroke="black" points="461.1,-122 392.9,-122 392.9,-86 461.1,-86 461.1,-122"/>
<text text-anchor="middle" x="427" y="-99.8" font-family="Times,serif" font-size="14.00">StaffPipe</text>
</g>
<!-- StaffPipe&#45;&gt;CoreModule -->
<g id="edge7" class="edge">
<title>StaffPipe&#45;&gt;CoreModule</title>
<path fill="none" stroke="black" d="M434.85,-122.28C434.85,-137.95 434.85,-158 434.85,-158 434.85,-158 629.49,-158 629.49,-158"/>
<polygon fill="black" stroke="black" points="629.49,-161.5 639.49,-158 629.49,-154.5 629.49,-161.5"/>
</g>
<!-- TabDirective -->
<g id="node8" class="node">
<title>TabDirective</title>
<polygon fill="#ffffb3" stroke="black" points="374.85,-122 285.15,-122 285.15,-86 374.85,-86 374.85,-122"/>
<text text-anchor="middle" x="330" y="-99.8" font-family="Times,serif" font-size="14.00">TabDirective</text>
</g>
<!-- TabDirective&#45;&gt;CoreModule -->
<g id="edge8" class="edge">
<title>TabDirective&#45;&gt;CoreModule</title>
<path fill="none" stroke="black" d="M370.8,-122.04C370.8,-138.73 370.8,-161 370.8,-161 370.8,-161 629.59,-161 629.59,-161"/>
<polygon fill="black" stroke="black" points="629.59,-164.5 639.59,-161 629.59,-157.5 629.59,-164.5"/>
</g>
<!-- TmstmpComponent -->
<g id="node9" class="node">
<title>TmstmpComponent</title>
<polygon fill="#ffffb3" stroke="black" points="267,-122 139,-122 139,-86 267,-86 267,-122"/>
<text text-anchor="middle" x="203" y="-99.8" font-family="Times,serif" font-size="14.00">TmstmpComponent</text>
</g>
<!-- TmstmpComponent&#45;&gt;CoreModule -->
<g id="edge9" class="edge">
<title>TmstmpComponent&#45;&gt;CoreModule</title>
<path fill="none" stroke="black" d="M261.38,-122.3C261.38,-140.27 261.38,-165 261.38,-165 261.38,-165 629.47,-165 629.47,-165"/>
<polygon fill="black" stroke="black" points="629.47,-168.5 639.47,-165 629.47,-161.5 629.47,-168.5"/>
</g>
<!-- VcdtxtPipe -->
<g id="node10" class="node">
<title>VcdtxtPipe</title>
<polygon fill="#ffffb3" stroke="black" points="121.49,-122 42.51,-122 42.51,-86 121.49,-86 121.49,-122"/>
<text text-anchor="middle" x="82" y="-99.8" font-family="Times,serif" font-size="14.00">VcdtxtPipe</text>
</g>
<!-- VcdtxtPipe&#45;&gt;CoreModule -->
<g id="edge10" class="edge">
<title>VcdtxtPipe&#45;&gt;CoreModule</title>
<path fill="none" stroke="black" d="M113.87,-122.17C113.87,-141.09 113.87,-168 113.87,-168 113.87,-168 629.29,-168 629.29,-168"/>
<polygon fill="black" stroke="black" points="629.29,-171.5 639.29,-168 629.29,-164.5 629.29,-171.5"/>
</g>
<!-- BunruiPipe  -->
<g id="node13" class="node">
<title>BunruiPipe </title>
<polygon fill="#fb8072" stroke="black" points="1279.78,-252 1196.22,-252 1196.22,-216 1279.78,-216 1279.78,-252"/>
<text text-anchor="middle" x="1238" y="-229.8" font-family="Times,serif" font-size="14.00">BunruiPipe </text>
</g>
<!-- CoreModule&#45;&gt;BunruiPipe  -->
<g id="edge12" class="edge">
<title>CoreModule&#45;&gt;BunruiPipe </title>
<path fill="none" stroke="black" stroke-dasharray="5,2" d="M726.45,-171C856.05,-171 1230.92,-171 1230.92,-171 1230.92,-171 1230.92,-205.78 1230.92,-205.78"/>
<polygon fill="black" stroke="black" points="1227.42,-205.78 1230.92,-215.78 1234.42,-205.78 1227.42,-205.78"/>
</g>
<!-- JdatePipe  -->
<g id="node14" class="node">
<title>JdatePipe </title>
<polygon fill="#fb8072" stroke="black" points="1178.65,-252 1105.35,-252 1105.35,-216 1178.65,-216 1178.65,-252"/>
<text text-anchor="middle" x="1142" y="-229.8" font-family="Times,serif" font-size="14.00">JdatePipe </text>
</g>
<!-- CoreModule&#45;&gt;JdatePipe  -->
<g id="edge13" class="edge">
<title>CoreModule&#45;&gt;JdatePipe </title>
<path fill="none" stroke="black" stroke-dasharray="5,2" d="M726.51,-174C837.09,-174 1120.16,-174 1120.16,-174 1120.16,-174 1120.16,-206 1120.16,-206"/>
<polygon fill="black" stroke="black" points="1116.66,-206 1120.16,-216 1123.66,-206 1116.66,-206"/>
</g>
<!-- MaterialModule  -->
<g id="node15" class="node">
<title>MaterialModule </title>
<polygon fill="#fb8072" stroke="black" points="1087.47,-252 976.53,-252 976.53,-216 1087.47,-216 1087.47,-252"/>
<text text-anchor="middle" x="1032" y="-229.8" font-family="Times,serif" font-size="14.00">MaterialModule </text>
</g>
<!-- CoreModule&#45;&gt;MaterialModule  -->
<g id="edge14" class="edge">
<title>CoreModule&#45;&gt;MaterialModule </title>
<path fill="none" stroke="black" stroke-dasharray="5,2" d="M726.33,-178C814.56,-178 1006.8,-178 1006.8,-178 1006.8,-178 1006.8,-205.97 1006.8,-205.97"/>
<polygon fill="black" stroke="black" points="1003.3,-205.97 1006.8,-215.97 1010.3,-205.97 1003.3,-205.97"/>
</g>
<!-- McdtxtPipe  -->
<g id="node16" class="node">
<title>McdtxtPipe </title>
<polygon fill="#fb8072" stroke="black" points="958.33,-252 873.67,-252 873.67,-216 958.33,-216 958.33,-252"/>
<text text-anchor="middle" x="916" y="-229.8" font-family="Times,serif" font-size="14.00">McdtxtPipe </text>
</g>
<!-- CoreModule&#45;&gt;McdtxtPipe  -->
<g id="edge15" class="edge">
<title>CoreModule&#45;&gt;McdtxtPipe </title>
<path fill="none" stroke="black" stroke-dasharray="5,2" d="M726.44,-181C789.5,-181 898.95,-181 898.95,-181 898.95,-181 898.95,-205.76 898.95,-205.76"/>
<polygon fill="black" stroke="black" points="895.45,-205.76 898.95,-215.76 902.45,-205.76 895.45,-205.76"/>
</g>
<!-- ModetxtPipe  -->
<g id="node17" class="node">
<title>ModetxtPipe </title>
<polygon fill="#fb8072" stroke="black" points="855.83,-252 764.17,-252 764.17,-216 855.83,-216 855.83,-252"/>
<text text-anchor="middle" x="810" y="-229.8" font-family="Times,serif" font-size="14.00">ModetxtPipe </text>
</g>
<!-- CoreModule&#45;&gt;ModetxtPipe  -->
<g id="edge16" class="edge">
<title>CoreModule&#45;&gt;ModetxtPipe </title>
<path fill="none" stroke="black" stroke-dasharray="5,2" d="M726.39,-184C757.07,-184 792.78,-184 792.78,-184 792.78,-184 792.78,-205.95 792.78,-205.95"/>
<polygon fill="black" stroke="black" points="789.28,-205.95 792.78,-215.95 796.28,-205.95 789.28,-205.95"/>
</g>
<!-- NavbarComponent  -->
<g id="node18" class="node">
<title>NavbarComponent </title>
<polygon fill="#fb8072" stroke="black" points="746.03,-252 619.97,-252 619.97,-216 746.03,-216 746.03,-252"/>
<text text-anchor="middle" x="683" y="-229.8" font-family="Times,serif" font-size="14.00">NavbarComponent </text>
</g>
<!-- CoreModule&#45;&gt;NavbarComponent  -->
<g id="edge17" class="edge">
<title>CoreModule&#45;&gt;NavbarComponent </title>
<path fill="none" stroke="black" stroke-dasharray="5,2" d="M683,-187.11C683,-187.11 683,-205.99 683,-205.99"/>
<polygon fill="black" stroke="black" points="679.5,-205.99 683,-215.99 686.5,-205.99 679.5,-205.99"/>
</g>
<!-- NuminputDirective  -->
<g id="node19" class="node">
<title>NuminputDirective </title>
<polygon fill="#fb8072" stroke="black" points="602.36,-252 473.64,-252 473.64,-216 602.36,-216 602.36,-252"/>
<text text-anchor="middle" x="538" y="-229.8" font-family="Times,serif" font-size="14.00">NuminputDirective </text>
</g>
<!-- CoreModule&#45;&gt;NuminputDirective  -->
<g id="edge18" class="edge">
<title>CoreModule&#45;&gt;NuminputDirective </title>
<path fill="none" stroke="black" stroke-dasharray="5,2" d="M639.69,-184C591.33,-184 519.77,-184 519.77,-184 519.77,-184 519.77,-205.95 519.77,-205.95"/>
<polygon fill="black" stroke="black" points="516.27,-205.95 519.77,-215.95 523.27,-205.95 516.27,-205.95"/>
</g>
<!-- StaffPipe  -->
<g id="node20" class="node">
<title>StaffPipe </title>
<polygon fill="#fb8072" stroke="black" points="455.6,-252 384.4,-252 384.4,-216 455.6,-216 455.6,-252"/>
<text text-anchor="middle" x="420" y="-229.8" font-family="Times,serif" font-size="14.00">StaffPipe </text>
</g>
<!-- CoreModule&#45;&gt;StaffPipe  -->
<g id="edge19" class="edge">
<title>CoreModule&#45;&gt;StaffPipe </title>
<path fill="none" stroke="black" stroke-dasharray="5,2" d="M639.47,-181C563.3,-181 413.9,-181 413.9,-181 413.9,-181 413.9,-205.76 413.9,-205.76"/>
<polygon fill="black" stroke="black" points="410.4,-205.76 413.9,-215.76 417.4,-205.76 410.4,-205.76"/>
</g>
<!-- TabDirective  -->
<g id="node21" class="node">
<title>TabDirective </title>
<polygon fill="#fb8072" stroke="black" points="366.85,-252 273.15,-252 273.15,-216 366.85,-216 366.85,-252"/>
<text text-anchor="middle" x="320" y="-229.8" font-family="Times,serif" font-size="14.00">TabDirective </text>
</g>
<!-- CoreModule&#45;&gt;TabDirective  -->
<g id="edge20" class="edge">
<title>CoreModule&#45;&gt;TabDirective </title>
<path fill="none" stroke="black" stroke-dasharray="5,2" d="M639.57,-178C544.39,-178 325.88,-178 325.88,-178 325.88,-178 325.88,-205.97 325.88,-205.97"/>
<polygon fill="black" stroke="black" points="322.38,-205.97 325.88,-215.97 329.38,-205.97 322.38,-205.97"/>
</g>
<!-- TmstmpComponent  -->
<g id="node22" class="node">
<title>TmstmpComponent </title>
<polygon fill="#fb8072" stroke="black" points="255.5,-252 124.5,-252 124.5,-216 255.5,-216 255.5,-252"/>
<text text-anchor="middle" x="190" y="-229.8" font-family="Times,serif" font-size="14.00">TmstmpComponent </text>
</g>
<!-- CoreModule&#45;&gt;TmstmpComponent  -->
<g id="edge21" class="edge">
<title>CoreModule&#45;&gt;TmstmpComponent </title>
<path fill="none" stroke="black" stroke-dasharray="5,2" d="M639.48,-174C520.28,-174 197.38,-174 197.38,-174 197.38,-174 197.38,-206 197.38,-206"/>
<polygon fill="black" stroke="black" points="193.88,-206 197.38,-216 200.88,-206 193.88,-206"/>
</g>
<!-- VcdtxtPipe  -->
<g id="node23" class="node">
<title>VcdtxtPipe </title>
<polygon fill="#fb8072" stroke="black" points="106.49,-252 23.51,-252 23.51,-216 106.49,-216 106.49,-252"/>
<text text-anchor="middle" x="65" y="-229.8" font-family="Times,serif" font-size="14.00">VcdtxtPipe </text>
</g>
<!-- CoreModule&#45;&gt;VcdtxtPipe  -->
<g id="edge22" class="edge">
<title>CoreModule&#45;&gt;VcdtxtPipe </title>
<path fill="none" stroke="black" stroke-dasharray="5,2" d="M639.72,-171C500.67,-171 74.38,-171 74.38,-171 74.38,-171 74.38,-205.78 74.38,-205.78"/>
<polygon fill="black" stroke="black" points="70.88,-205.78 74.38,-215.78 77.88,-205.78 70.88,-205.78"/>
</g>
<!-- MaterialModule -->
<g id="node12" class="node">
<title>MaterialModule</title>
<polygon fill="#8dd3c7" stroke="black" points="1265.47,-122 1262.47,-126 1241.47,-126 1238.47,-122 1158.53,-122 1158.53,-86 1265.47,-86 1265.47,-122"/>
<text text-anchor="middle" x="1212" y="-99.8" font-family="Times,serif" font-size="14.00">MaterialModule</text>
</g>
<!-- MaterialModule&#45;&gt;CoreModule -->
<g id="edge11" class="edge">
<title>MaterialModule&#45;&gt;CoreModule</title>
<path fill="none" stroke="black" d="M1168.55,-122.17C1168.55,-141.09 1168.55,-168 1168.55,-168 1168.55,-168 736.52,-168 736.52,-168"/>
<polygon fill="black" stroke="black" points="736.52,-164.5 726.52,-168 736.52,-171.5 736.52,-164.5"/>
</g>
</g>
</svg>
