<?xml version="1.0" encoding="UTF-8" standalone="no"?>
<!DOCTYPE svg PUBLIC "-//W3C//DTD SVG 1.1//EN"
 "http://www.w3.org/Graphics/SVG/1.1/DTD/svg11.dtd">
<!-- Generated by graphviz version 2.47.0 (20210316.0004)
 -->
<!-- Title: dependencies Pages: 1 -->
<svg width="762pt" height="211pt"
 viewBox="0.00 0.00 762.00 211.00" xmlns="http://www.w3.org/2000/svg" xmlns:xlink="http://www.w3.org/1999/xlink">
<g id="graph0" class="graph" transform="scale(1 1) rotate(0) translate(4 207)">
<title>dependencies</title>
<polygon fill="white" stroke="transparent" points="-4,4 -4,-207 758,-207 758,4 -4,4"/>
<text text-anchor="start" x="356.01" y="-42.4" font-family="sans-serif" font-weight="bold" font-size="14.00">Legend</text>
<polygon fill="#ffffb3" stroke="transparent" points="143,-10 143,-30 163,-30 163,-10 143,-10"/>
<text text-anchor="start" x="166.63" y="-15.4" font-family="sans-serif" font-size="14.00"> &#160;Declarations</text>
<polygon fill="#8dd3c7" stroke="transparent" points="256,-10 256,-30 276,-30 276,-10 256,-10"/>
<text text-anchor="start" x="279.73" y="-15.4" font-family="sans-serif" font-size="14.00"> &#160;Module</text>
<polygon fill="#80b1d3" stroke="transparent" points="342,-10 342,-30 362,-30 362,-10 342,-10"/>
<text text-anchor="start" x="365.78" y="-15.4" font-family="sans-serif" font-size="14.00"> &#160;Bootstrap</text>
<polygon fill="#fdb462" stroke="transparent" points="439,-10 439,-30 459,-30 459,-10 439,-10"/>
<text text-anchor="start" x="462.67" y="-15.4" font-family="sans-serif" font-size="14.00"> &#160;Providers</text>
<polygon fill="#fb8072" stroke="transparent" points="535,-10 535,-30 555,-30 555,-10 535,-10"/>
<text text-anchor="start" x="558.73" y="-15.4" font-family="sans-serif" font-size="14.00"> &#160;Exports</text>
<g id="clust1" class="cluster">
<title>cluster_FrmsalesModule</title>
<polygon fill="none" stroke="black" stroke-dasharray="1,5" points="8,-70 8,-195 746,-195 746,-70 8,-70"/>
</g>
<g id="clust6" class="cluster">
<title>cluster_FrmsalesModule_imports</title>
<polygon fill="none" stroke="black" points="462,-78 462,-130 738,-130 738,-78 462,-78"/>
</g>
<g id="clust2" class="cluster">
<title>cluster_FrmsalesModule_declarations</title>
<polygon fill="none" stroke="black" points="16,-78 16,-130 454,-130 454,-78 16,-78"/>
</g>
<!-- FrmsalesComponent -->
<g id="node1" class="node">
<title>FrmsalesComponent</title>
<polygon fill="#ffffb3" stroke="black" points="445.88,-122 314.12,-122 314.12,-86 445.88,-86 445.88,-122"/>
<text text-anchor="middle" x="380" y="-99.8" font-family="Times,serif" font-size="14.00">FrmsalesComponent</text>
</g>
<!-- FrmsalesModule -->
<g id="node4" class="node">
<title>FrmsalesModule</title>
<polygon fill="#8dd3c7" stroke="black" points="435.09,-187 432.09,-191 411.09,-191 408.09,-187 324.91,-187 324.91,-151 435.09,-151 435.09,-187"/>
<text text-anchor="middle" x="380" y="-164.8" font-family="Times,serif" font-size="14.00">FrmsalesModule</text>
</g>
<!-- FrmsalesComponent&#45;&gt;FrmsalesModule -->
<g id="edge1" class="edge">
<title>FrmsalesComponent&#45;&gt;FrmsalesModule</title>
<path fill="none" stroke="black" d="M380,-122.11C380,-122.11 380,-140.99 380,-140.99"/>
<polygon fill="black" stroke="black" points="376.5,-140.99 380,-150.99 383.5,-140.99 376.5,-140.99"/>
</g>
<!-- JdnohelpComponent -->
<g id="node2" class="node">
<title>JdnohelpComponent</title>
<polygon fill="#ffffb3" stroke="black" points="295.88,-122 164.12,-122 164.12,-86 295.88,-86 295.88,-122"/>
<text text-anchor="middle" x="230" y="-99.8" font-family="Times,serif" font-size="14.00">JdnohelpComponent</text>
</g>
<!-- JdnohelpComponent&#45;&gt;FrmsalesModule -->
<g id="edge2" class="edge">
<title>JdnohelpComponent&#45;&gt;FrmsalesModule</title>
<path fill="none" stroke="black" d="M230,-122.02C230,-139.37 230,-163 230,-163 230,-163 314.57,-163 314.57,-163"/>
<polygon fill="black" stroke="black" points="314.57,-166.5 324.57,-163 314.57,-159.5 314.57,-166.5"/>
</g>
<!-- JmeitblComponent -->
<g id="node3" class="node">
<title>JmeitblComponent</title>
<polygon fill="#ffffb3" stroke="black" points="146.05,-122 23.95,-122 23.95,-86 146.05,-86 146.05,-122"/>
<text text-anchor="middle" x="85" y="-99.8" font-family="Times,serif" font-size="14.00">JmeitblComponent</text>
</g>
<!-- JmeitblComponent&#45;&gt;FrmsalesModule -->
<g id="edge3" class="edge">
<title>JmeitblComponent&#45;&gt;FrmsalesModule</title>
<path fill="none" stroke="black" d="M85,-122.28C85,-143.32 85,-175 85,-175 85,-175 314.86,-175 314.86,-175"/>
<polygon fill="black" stroke="black" points="314.86,-178.5 324.86,-175 314.86,-171.5 314.86,-178.5"/>
</g>
<!-- CoreModule -->
<g id="node5" class="node">
<title>CoreModule</title>
<polygon fill="#8dd3c7" stroke="black" points="730.26,-122 727.26,-126 706.26,-126 703.26,-122 643.74,-122 643.74,-86 730.26,-86 730.26,-122"/>
<text text-anchor="middle" x="687" y="-99.8" font-family="Times,serif" font-size="14.00">CoreModule</text>
</g>
<!-- CoreModule&#45;&gt;FrmsalesModule -->
<g id="edge4" class="edge">
<title>CoreModule&#45;&gt;FrmsalesModule</title>
<path fill="none" stroke="black" d="M687,-122.28C687,-143.32 687,-175 687,-175 687,-175 445.24,-175 445.24,-175"/>
<polygon fill="black" stroke="black" points="445.24,-171.5 435.24,-175 445.24,-178.5 445.24,-171.5"/>
</g>
<!-- FrmsalesRoutingModule -->
<g id="node6" class="node">
<title>FrmsalesRoutingModule</title>
<polygon fill="#8dd3c7" stroke="black" points="625.71,-122 622.71,-126 601.71,-126 598.71,-122 470.29,-122 470.29,-86 625.71,-86 625.71,-122"/>
<text text-anchor="middle" x="548" y="-99.8" font-family="Times,serif" font-size="14.00">FrmsalesRoutingModule</text>
</g>
<!-- FrmsalesRoutingModule&#45;&gt;FrmsalesModule -->
<g id="edge5" class="edge">
<title>FrmsalesRoutingModule&#45;&gt;FrmsalesModule</title>
<path fill="none" stroke="black" d="M548,-122.02C548,-139.37 548,-163 548,-163 548,-163 445.48,-163 445.48,-163"/>
<polygon fill="black" stroke="black" points="445.48,-159.5 435.48,-163 445.48,-166.5 445.48,-159.5"/>
</g>
</g>
</svg>
