<?xml version="1.0" encoding="UTF-8" standalone="no"?>
<!DOCTYPE svg PUBLIC "-//W3C//DTD SVG 1.1//EN"
 "http://www.w3.org/Graphics/SVG/1.1/DTD/svg11.dtd">
<!-- Generated by graphviz version 2.47.0 (20210316.0004)
 -->
<!-- Title: dependencies Pages: 1 -->
<svg width="700pt" height="211pt"
 viewBox="0.00 0.00 700.00 211.00" xmlns="http://www.w3.org/2000/svg" xmlns:xlink="http://www.w3.org/1999/xlink">
<g id="graph0" class="graph" transform="scale(1 1) rotate(0) translate(4 207)">
<title>dependencies</title>
<polygon fill="white" stroke="transparent" points="-4,4 -4,-207 696,-207 696,4 -4,4"/>
<text text-anchor="start" x="325.01" y="-42.4" font-family="sans-serif" font-weight="bold" font-size="14.00">Legend</text>
<polygon fill="#ffffb3" stroke="transparent" points="112,-10 112,-30 132,-30 132,-10 112,-10"/>
<text text-anchor="start" x="135.63" y="-15.4" font-family="sans-serif" font-size="14.00"> &#160;Declarations</text>
<polygon fill="#8dd3c7" stroke="transparent" points="225,-10 225,-30 245,-30 245,-10 225,-10"/>
<text text-anchor="start" x="248.73" y="-15.4" font-family="sans-serif" font-size="14.00"> &#160;Module</text>
<polygon fill="#80b1d3" stroke="transparent" points="311,-10 311,-30 331,-30 331,-10 311,-10"/>
<text text-anchor="start" x="334.78" y="-15.4" font-family="sans-serif" font-size="14.00"> &#160;Bootstrap</text>
<polygon fill="#fdb462" stroke="transparent" points="408,-10 408,-30 428,-30 428,-10 408,-10"/>
<text text-anchor="start" x="431.67" y="-15.4" font-family="sans-serif" font-size="14.00"> &#160;Providers</text>
<polygon fill="#fb8072" stroke="transparent" points="504,-10 504,-30 524,-30 524,-10 504,-10"/>
<text text-anchor="start" x="527.73" y="-15.4" font-family="sans-serif" font-size="14.00"> &#160;Exports</text>
<g id="clust1" class="cluster">
<title>cluster_FrmsalesModule</title>
<polygon fill="none" stroke="black" stroke-dasharray="1,5" points="8,-70 8,-195 684,-195 684,-70 8,-70"/>
</g>
<g id="clust6" class="cluster">
<title>cluster_FrmsalesModule_imports</title>
<polygon fill="none" stroke="black" points="400,-78 400,-130 676,-130 676,-78 400,-78"/>
</g>
<g id="clust2" class="cluster">
<title>cluster_FrmsalesModule_declarations</title>
<polygon fill="none" stroke="black" points="16,-78 16,-130 392,-130 392,-78 16,-78"/>
</g>
<!-- FrmsalesComponent -->
<g id="node1" class="node">
<title>FrmsalesComponent</title>
<polygon fill="#ffffb3" stroke="black" points="383.88,-122 252.12,-122 252.12,-86 383.88,-86 383.88,-122"/>
<text text-anchor="middle" x="318" y="-99.8" font-family="Times,serif" font-size="14.00">FrmsalesComponent</text>
</g>
<!-- FrmsalesModule -->
<g id="node4" class="node">
<title>FrmsalesModule</title>
<polygon fill="#8dd3c7" stroke="black" points="373.09,-187 370.09,-191 349.09,-191 346.09,-187 262.91,-187 262.91,-151 373.09,-151 373.09,-187"/>
<text text-anchor="middle" x="318" y="-164.8" font-family="Times,serif" font-size="14.00">FrmsalesModule</text>
</g>
<!-- FrmsalesComponent&#45;&gt;FrmsalesModule -->
<g id="edge1" class="edge">
<title>FrmsalesComponent&#45;&gt;FrmsalesModule</title>
<path fill="none" stroke="black" d="M318,-122.11C318,-122.11 318,-140.99 318,-140.99"/>
<polygon fill="black" stroke="black" points="314.5,-140.99 318,-150.99 321.5,-140.99 314.5,-140.99"/>
</g>
<!-- JdatePipe -->
<g id="node2" class="node">
<title>JdatePipe</title>
<polygon fill="#ffffb3" stroke="black" points="233.65,-122 164.35,-122 164.35,-86 233.65,-86 233.65,-122"/>
<text text-anchor="middle" x="199" y="-99.8" font-family="Times,serif" font-size="14.00">JdatePipe</text>
</g>
<!-- JdatePipe&#45;&gt;FrmsalesModule -->
<g id="edge2" class="edge">
<title>JdatePipe&#45;&gt;FrmsalesModule</title>
<path fill="none" stroke="black" d="M199,-122.02C199,-139.37 199,-163 199,-163 199,-163 252.68,-163 252.68,-163"/>
<polygon fill="black" stroke="black" points="252.68,-166.5 262.68,-163 252.68,-159.5 252.68,-166.5"/>
</g>
<!-- JmeitblComponent -->
<g id="node3" class="node">
<title>JmeitblComponent</title>
<polygon fill="#ffffb3" stroke="black" points="146.05,-122 23.95,-122 23.95,-86 146.05,-86 146.05,-122"/>
<text text-anchor="middle" x="85" y="-99.8" font-family="Times,serif" font-size="14.00">JmeitblComponent</text>
</g>
<!-- JmeitblComponent&#45;&gt;FrmsalesModule -->
<g id="edge3" class="edge">
<title>JmeitblComponent&#45;&gt;FrmsalesModule</title>
<path fill="none" stroke="black" d="M85,-122.28C85,-143.32 85,-175 85,-175 85,-175 252.78,-175 252.78,-175"/>
<polygon fill="black" stroke="black" points="252.78,-178.5 262.78,-175 252.78,-171.5 252.78,-178.5"/>
</g>
<!-- CoreModule -->
<g id="node5" class="node">
<title>CoreModule</title>
<polygon fill="#8dd3c7" stroke="black" points="668.26,-122 665.26,-126 644.26,-126 641.26,-122 581.74,-122 581.74,-86 668.26,-86 668.26,-122"/>
<text text-anchor="middle" x="625" y="-99.8" font-family="Times,serif" font-size="14.00">CoreModule</text>
</g>
<!-- CoreModule&#45;&gt;FrmsalesModule -->
<g id="edge4" class="edge">
<title>CoreModule&#45;&gt;FrmsalesModule</title>
<path fill="none" stroke="black" d="M625,-122.28C625,-143.32 625,-175 625,-175 625,-175 383.24,-175 383.24,-175"/>
<polygon fill="black" stroke="black" points="383.24,-171.5 373.24,-175 383.24,-178.5 383.24,-171.5"/>
</g>
<!-- FrmsalesRoutingModule -->
<g id="node6" class="node">
<title>FrmsalesRoutingModule</title>
<polygon fill="#8dd3c7" stroke="black" points="563.71,-122 560.71,-126 539.71,-126 536.71,-122 408.29,-122 408.29,-86 563.71,-86 563.71,-122"/>
<text text-anchor="middle" x="486" y="-99.8" font-family="Times,serif" font-size="14.00">FrmsalesRoutingModule</text>
</g>
<!-- FrmsalesRoutingModule&#45;&gt;FrmsalesModule -->
<g id="edge5" class="edge">
<title>FrmsalesRoutingModule&#45;&gt;FrmsalesModule</title>
<path fill="none" stroke="black" d="M486,-122.02C486,-139.37 486,-163 486,-163 486,-163 383.48,-163 383.48,-163"/>
<polygon fill="black" stroke="black" points="383.48,-159.5 373.48,-163 383.48,-166.5 383.48,-159.5"/>
</g>
</g>
</svg>
