<?xml version="1.0" encoding="UTF-8" standalone="no"?>
<!DOCTYPE svg PUBLIC "-//W3C//DTD SVG 1.1//EN"
 "http://www.w3.org/Graphics/SVG/1.1/DTD/svg11.dtd">
<!-- Generated by graphviz version 2.47.0 (20210316.0004)
 -->
<!-- Title: dependencies Pages: 1 -->
<svg width="1073pt" height="211pt"
 viewBox="0.00 0.00 1073.00 211.00" xmlns="http://www.w3.org/2000/svg" xmlns:xlink="http://www.w3.org/1999/xlink">
<g id="graph0" class="graph" transform="scale(1 1) rotate(0) translate(4 207)">
<title>dependencies</title>
<polygon fill="white" stroke="transparent" points="-4,4 -4,-207 1069,-207 1069,4 -4,4"/>
<text text-anchor="start" x="511.51" y="-42.4" font-family="sans-serif" font-weight="bold" font-size="14.00">Legend</text>
<polygon fill="#ffffb3" stroke="transparent" points="298.5,-10 298.5,-30 318.5,-30 318.5,-10 298.5,-10"/>
<text text-anchor="start" x="322.13" y="-15.4" font-family="sans-serif" font-size="14.00"> &#160;Declarations</text>
<polygon fill="#8dd3c7" stroke="transparent" points="411.5,-10 411.5,-30 431.5,-30 431.5,-10 411.5,-10"/>
<text text-anchor="start" x="435.23" y="-15.4" font-family="sans-serif" font-size="14.00"> &#160;Module</text>
<polygon fill="#80b1d3" stroke="transparent" points="497.5,-10 497.5,-30 517.5,-30 517.5,-10 497.5,-10"/>
<text text-anchor="start" x="521.28" y="-15.4" font-family="sans-serif" font-size="14.00"> &#160;Bootstrap</text>
<polygon fill="#fdb462" stroke="transparent" points="594.5,-10 594.5,-30 614.5,-30 614.5,-10 594.5,-10"/>
<text text-anchor="start" x="618.17" y="-15.4" font-family="sans-serif" font-size="14.00"> &#160;Providers</text>
<polygon fill="#fb8072" stroke="transparent" points="690.5,-10 690.5,-30 710.5,-30 710.5,-10 690.5,-10"/>
<text text-anchor="start" x="714.23" y="-15.4" font-family="sans-serif" font-size="14.00"> &#160;Exports</text>
<g id="clust1" class="cluster">
<title>cluster_MstgoodsModule</title>
<polygon fill="none" stroke="black" stroke-dasharray="1,5" points="8,-70 8,-195 1057,-195 1057,-70 8,-70"/>
</g>
<g id="clust8" class="cluster">
<title>cluster_MstgoodsModule_imports</title>
<polygon fill="none" stroke="black" points="769,-78 769,-130 1049,-130 1049,-78 769,-78"/>
</g>
<g id="clust2" class="cluster">
<title>cluster_MstgoodsModule_declarations</title>
<polygon fill="none" stroke="black" points="16,-78 16,-130 761,-130 761,-78 16,-78"/>
</g>
<!-- GdsimageComponent -->
<g id="node1" class="node">
<title>GdsimageComponent</title>
<polygon fill="#ffffb3" stroke="black" points="753.09,-122 614.91,-122 614.91,-86 753.09,-86 753.09,-122"/>
<text text-anchor="middle" x="684" y="-99.8" font-family="Times,serif" font-size="14.00">GdsimageComponent</text>
</g>
<!-- MstgoodsModule -->
<g id="node6" class="node">
<title>MstgoodsModule</title>
<polygon fill="#8dd3c7" stroke="black" points="595.27,-187 592.27,-191 571.27,-191 568.27,-187 480.73,-187 480.73,-151 595.27,-151 595.27,-187"/>
<text text-anchor="middle" x="538" y="-164.8" font-family="Times,serif" font-size="14.00">MstgoodsModule</text>
</g>
<!-- GdsimageComponent&#45;&gt;MstgoodsModule -->
<g id="edge1" class="edge">
<title>GdsimageComponent&#45;&gt;MstgoodsModule</title>
<path fill="none" stroke="black" d="M684,-122.03C684,-138.4 684,-160 684,-160 684,-160 605.28,-160 605.28,-160"/>
<polygon fill="black" stroke="black" points="605.28,-156.5 595.28,-160 605.28,-163.5 605.28,-156.5"/>
</g>
<!-- GdstblComponent -->
<g id="node2" class="node">
<title>GdstblComponent</title>
<polygon fill="#ffffb3" stroke="black" points="597.17,-122 478.83,-122 478.83,-86 597.17,-86 597.17,-122"/>
<text text-anchor="middle" x="538" y="-99.8" font-family="Times,serif" font-size="14.00">GdstblComponent</text>
</g>
<!-- GdstblComponent&#45;&gt;MstgoodsModule -->
<g id="edge2" class="edge">
<title>GdstblComponent&#45;&gt;MstgoodsModule</title>
<path fill="none" stroke="black" d="M538,-122.11C538,-122.11 538,-140.99 538,-140.99"/>
<polygon fill="black" stroke="black" points="534.5,-140.99 538,-150.99 541.5,-140.99 534.5,-140.99"/>
</g>
<!-- GrpcdhelpComponent -->
<g id="node3" class="node">
<title>GrpcdhelpComponent</title>
<polygon fill="#ffffb3" stroke="black" points="460.42,-122 319.58,-122 319.58,-86 460.42,-86 460.42,-122"/>
<text text-anchor="middle" x="390" y="-99.8" font-family="Times,serif" font-size="14.00">GrpcdhelpComponent</text>
</g>
<!-- GrpcdhelpComponent&#45;&gt;MstgoodsModule -->
<g id="edge3" class="edge">
<title>GrpcdhelpComponent&#45;&gt;MstgoodsModule</title>
<path fill="none" stroke="black" d="M390,-122.03C390,-138.4 390,-160 390,-160 390,-160 470.36,-160 470.36,-160"/>
<polygon fill="black" stroke="black" points="470.36,-163.5 480.36,-160 470.36,-156.5 470.36,-163.5"/>
</g>
<!-- GtnktblComponent -->
<g id="node4" class="node">
<title>GtnktblComponent</title>
<polygon fill="#ffffb3" stroke="black" points="302.11,-122 177.89,-122 177.89,-86 302.11,-86 302.11,-122"/>
<text text-anchor="middle" x="240" y="-99.8" font-family="Times,serif" font-size="14.00">GtnktblComponent</text>
</g>
<!-- GtnktblComponent&#45;&gt;MstgoodsModule -->
<g id="edge4" class="edge">
<title>GtnktblComponent&#45;&gt;MstgoodsModule</title>
<path fill="none" stroke="black" d="M240,-122.11C240,-141.34 240,-169 240,-169 240,-169 470.54,-169 470.54,-169"/>
<polygon fill="black" stroke="black" points="470.54,-172.5 480.54,-169 470.54,-165.5 470.54,-172.5"/>
</g>
<!-- MstgoodsComponent -->
<g id="node5" class="node">
<title>MstgoodsComponent</title>
<polygon fill="#ffffb3" stroke="black" points="160.06,-122 23.94,-122 23.94,-86 160.06,-86 160.06,-122"/>
<text text-anchor="middle" x="92" y="-99.8" font-family="Times,serif" font-size="14.00">MstgoodsComponent</text>
</g>
<!-- MstgoodsComponent&#45;&gt;MstgoodsModule -->
<g id="edge5" class="edge">
<title>MstgoodsComponent&#45;&gt;MstgoodsModule</title>
<path fill="none" stroke="black" d="M92,-122.29C92,-144.21 92,-178 92,-178 92,-178 470.61,-178 470.61,-178"/>
<polygon fill="black" stroke="black" points="470.61,-181.5 480.61,-178 470.61,-174.5 470.61,-181.5"/>
</g>
<!-- CoreModule -->
<g id="node7" class="node">
<title>CoreModule</title>
<polygon fill="#8dd3c7" stroke="black" points="1041.26,-122 1038.26,-126 1017.26,-126 1014.26,-122 954.74,-122 954.74,-86 1041.26,-86 1041.26,-122"/>
<text text-anchor="middle" x="998" y="-99.8" font-family="Times,serif" font-size="14.00">CoreModule</text>
</g>
<!-- CoreModule&#45;&gt;MstgoodsModule -->
<g id="edge6" class="edge">
<title>CoreModule&#45;&gt;MstgoodsModule</title>
<path fill="none" stroke="black" d="M998,-122.29C998,-144.21 998,-178 998,-178 998,-178 605.33,-178 605.33,-178"/>
<polygon fill="black" stroke="black" points="605.33,-174.5 595.33,-178 605.33,-181.5 605.33,-174.5"/>
</g>
<!-- MstgoodsRoutingModule -->
<g id="node8" class="node">
<title>MstgoodsRoutingModule</title>
<polygon fill="#8dd3c7" stroke="black" points="936.89,-122 933.89,-126 912.89,-126 909.89,-122 777.11,-122 777.11,-86 936.89,-86 936.89,-122"/>
<text text-anchor="middle" x="857" y="-99.8" font-family="Times,serif" font-size="14.00">MstgoodsRoutingModule</text>
</g>
<!-- MstgoodsRoutingModule&#45;&gt;MstgoodsModule -->
<g id="edge7" class="edge">
<title>MstgoodsRoutingModule&#45;&gt;MstgoodsModule</title>
<path fill="none" stroke="black" d="M857,-122.11C857,-141.34 857,-169 857,-169 857,-169 605.4,-169 605.4,-169"/>
<polygon fill="black" stroke="black" points="605.4,-165.5 595.4,-169 605.4,-172.5 605.4,-165.5"/>
</g>
</g>
</svg>
