<?xml version="1.0" encoding="UTF-8" standalone="no"?>
<!DOCTYPE svg PUBLIC "-//W3C//DTD SVG 1.1//EN"
 "http://www.w3.org/Graphics/SVG/1.1/DTD/svg11.dtd">
<!-- Generated by graphviz version 2.47.0 (20210316.0004)
 -->
<!-- Title: dependencies Pages: 1 -->
<svg width="621pt" height="211pt"
 viewBox="0.00 0.00 621.00 211.00" xmlns="http://www.w3.org/2000/svg" xmlns:xlink="http://www.w3.org/1999/xlink">
<g id="graph0" class="graph" transform="scale(1 1) rotate(0) translate(4 207)">
<title>dependencies</title>
<polygon fill="white" stroke="transparent" points="-4,4 -4,-207 617,-207 617,4 -4,4"/>
<text text-anchor="start" x="285.51" y="-42.4" font-family="sans-serif" font-weight="bold" font-size="14.00">Legend</text>
<polygon fill="#ffffb3" stroke="transparent" points="72.5,-10 72.5,-30 92.5,-30 92.5,-10 72.5,-10"/>
<text text-anchor="start" x="96.13" y="-15.4" font-family="sans-serif" font-size="14.00"> &#160;Declarations</text>
<polygon fill="#8dd3c7" stroke="transparent" points="185.5,-10 185.5,-30 205.5,-30 205.5,-10 185.5,-10"/>
<text text-anchor="start" x="209.23" y="-15.4" font-family="sans-serif" font-size="14.00"> &#160;Module</text>
<polygon fill="#80b1d3" stroke="transparent" points="271.5,-10 271.5,-30 291.5,-30 291.5,-10 271.5,-10"/>
<text text-anchor="start" x="295.28" y="-15.4" font-family="sans-serif" font-size="14.00"> &#160;Bootstrap</text>
<polygon fill="#fdb462" stroke="transparent" points="368.5,-10 368.5,-30 388.5,-30 388.5,-10 368.5,-10"/>
<text text-anchor="start" x="392.17" y="-15.4" font-family="sans-serif" font-size="14.00"> &#160;Providers</text>
<polygon fill="#fb8072" stroke="transparent" points="464.5,-10 464.5,-30 484.5,-30 484.5,-10 464.5,-10"/>
<text text-anchor="start" x="488.23" y="-15.4" font-family="sans-serif" font-size="14.00"> &#160;Exports</text>
<g id="clust1" class="cluster">
<title>cluster_RepstockModule</title>
<polygon fill="none" stroke="black" stroke-dasharray="1,5" points="8,-70 8,-195 605,-195 605,-70 8,-70"/>
</g>
<g id="clust5" class="cluster">
<title>cluster_RepstockModule_imports</title>
<polygon fill="none" stroke="black" points="320,-78 320,-130 597,-130 597,-78 320,-78"/>
</g>
<g id="clust2" class="cluster">
<title>cluster_RepstockModule_declarations</title>
<polygon fill="none" stroke="black" points="16,-78 16,-130 312,-130 312,-78 16,-78"/>
</g>
<!-- GcdhelpComponent -->
<g id="node1" class="node">
<title>GcdhelpComponent</title>
<polygon fill="#ffffb3" stroke="black" points="304.26,-122 175.74,-122 175.74,-86 304.26,-86 304.26,-122"/>
<text text-anchor="middle" x="240" y="-99.8" font-family="Times,serif" font-size="14.00">GcdhelpComponent</text>
</g>
<!-- RepstockModule -->
<g id="node3" class="node">
<title>RepstockModule</title>
<polygon fill="#8dd3c7" stroke="black" points="378.65,-187 375.65,-191 354.65,-191 351.65,-187 267.35,-187 267.35,-151 378.65,-151 378.65,-187"/>
<text text-anchor="middle" x="323" y="-164.8" font-family="Times,serif" font-size="14.00">RepstockModule</text>
</g>
<!-- GcdhelpComponent&#45;&gt;RepstockModule -->
<g id="edge1" class="edge">
<title>GcdhelpComponent&#45;&gt;RepstockModule</title>
<path fill="none" stroke="black" d="M285.78,-122.11C285.78,-122.11 285.78,-140.99 285.78,-140.99"/>
<polygon fill="black" stroke="black" points="282.28,-140.99 285.78,-150.99 289.28,-140.99 282.28,-140.99"/>
</g>
<!-- RepstockComponent -->
<g id="node2" class="node">
<title>RepstockComponent</title>
<polygon fill="#ffffb3" stroke="black" points="157.93,-122 24.07,-122 24.07,-86 157.93,-86 157.93,-122"/>
<text text-anchor="middle" x="91" y="-99.8" font-family="Times,serif" font-size="14.00">RepstockComponent</text>
</g>
<!-- RepstockComponent&#45;&gt;RepstockModule -->
<g id="edge2" class="edge">
<title>RepstockComponent&#45;&gt;RepstockModule</title>
<path fill="none" stroke="black" d="M91,-122.11C91,-141.34 91,-169 91,-169 91,-169 257.13,-169 257.13,-169"/>
<polygon fill="black" stroke="black" points="257.14,-172.5 267.13,-169 257.13,-165.5 257.14,-172.5"/>
</g>
<!-- CoreModule -->
<g id="node4" class="node">
<title>CoreModule</title>
<polygon fill="#8dd3c7" stroke="black" points="589.26,-122 586.26,-126 565.26,-126 562.26,-122 502.74,-122 502.74,-86 589.26,-86 589.26,-122"/>
<text text-anchor="middle" x="546" y="-99.8" font-family="Times,serif" font-size="14.00">CoreModule</text>
</g>
<!-- CoreModule&#45;&gt;RepstockModule -->
<g id="edge3" class="edge">
<title>CoreModule&#45;&gt;RepstockModule</title>
<path fill="none" stroke="black" d="M546,-122.11C546,-141.34 546,-169 546,-169 546,-169 388.7,-169 388.7,-169"/>
<polygon fill="black" stroke="black" points="388.7,-165.5 378.7,-169 388.7,-172.5 388.7,-165.5"/>
</g>
<!-- RepstockRoutingModule -->
<g id="node5" class="node">
<title>RepstockRoutingModule</title>
<polygon fill="#8dd3c7" stroke="black" points="484.27,-122 481.27,-126 460.27,-126 457.27,-122 327.73,-122 327.73,-86 484.27,-86 484.27,-122"/>
<text text-anchor="middle" x="406" y="-99.8" font-family="Times,serif" font-size="14.00">RepstockRoutingModule</text>
</g>
<!-- RepstockRoutingModule&#45;&gt;RepstockModule -->
<g id="edge4" class="edge">
<title>RepstockRoutingModule&#45;&gt;RepstockModule</title>
<path fill="none" stroke="black" d="M353.22,-122.11C353.22,-122.11 353.22,-140.99 353.22,-140.99"/>
<polygon fill="black" stroke="black" points="349.72,-140.99 353.22,-150.99 356.72,-140.99 349.72,-140.99"/>
</g>
</g>
</svg>
