<?xml version="1.0" encoding="UTF-8" standalone="no"?>
<!DOCTYPE svg PUBLIC "-//W3C//DTD SVG 1.1//EN"
 "http://www.w3.org/Graphics/SVG/1.1/DTD/svg11.dtd">
<!-- Generated by graphviz version 2.47.0 (20210316.0004)
 -->
<!-- Title: dependencies Pages: 1 -->
<svg width="638pt" height="211pt"
 viewBox="0.00 0.00 638.00 211.00" xmlns="http://www.w3.org/2000/svg" xmlns:xlink="http://www.w3.org/1999/xlink">
<g id="graph0" class="graph" transform="scale(1 1) rotate(0) translate(4 207)">
<title>dependencies</title>
<polygon fill="white" stroke="transparent" points="-4,4 -4,-207 634,-207 634,4 -4,4"/>
<text text-anchor="start" x="294.01" y="-42.4" font-family="sans-serif" font-weight="bold" font-size="14.00">Legend</text>
<polygon fill="#ffffb3" stroke="transparent" points="81,-10 81,-30 101,-30 101,-10 81,-10"/>
<text text-anchor="start" x="104.63" y="-15.4" font-family="sans-serif" font-size="14.00"> &#160;Declarations</text>
<polygon fill="#8dd3c7" stroke="transparent" points="194,-10 194,-30 214,-30 214,-10 194,-10"/>
<text text-anchor="start" x="217.73" y="-15.4" font-family="sans-serif" font-size="14.00"> &#160;Module</text>
<polygon fill="#80b1d3" stroke="transparent" points="280,-10 280,-30 300,-30 300,-10 280,-10"/>
<text text-anchor="start" x="303.78" y="-15.4" font-family="sans-serif" font-size="14.00"> &#160;Bootstrap</text>
<polygon fill="#fdb462" stroke="transparent" points="377,-10 377,-30 397,-30 397,-10 377,-10"/>
<text text-anchor="start" x="400.67" y="-15.4" font-family="sans-serif" font-size="14.00"> &#160;Providers</text>
<polygon fill="#fb8072" stroke="transparent" points="473,-10 473,-30 493,-30 493,-10 473,-10"/>
<text text-anchor="start" x="496.73" y="-15.4" font-family="sans-serif" font-size="14.00"> &#160;Exports</text>
<g id="clust1" class="cluster">
<title>cluster_MstvendorModule</title>
<polygon fill="none" stroke="black" stroke-dasharray="1,5" points="8,-70 8,-195 622,-195 622,-70 8,-70"/>
</g>
<g id="clust5" class="cluster">
<title>cluster_MstvendorModule_imports</title>
<polygon fill="none" stroke="black" points="328,-78 328,-130 614,-130 614,-78 328,-78"/>
</g>
<g id="clust2" class="cluster">
<title>cluster_MstvendorModule_declarations</title>
<polygon fill="none" stroke="black" points="16,-78 16,-130 320,-130 320,-78 16,-78"/>
</g>
<!-- MstvendorComponent -->
<g id="node1" class="node">
<title>MstvendorComponent</title>
<polygon fill="#ffffb3" stroke="black" points="311.99,-122 170.01,-122 170.01,-86 311.99,-86 311.99,-122"/>
<text text-anchor="middle" x="241" y="-99.8" font-family="Times,serif" font-size="14.00">MstvendorComponent</text>
</g>
<!-- MstvendorModule -->
<g id="node3" class="node">
<title>MstvendorModule</title>
<polygon fill="#8dd3c7" stroke="black" points="390.2,-187 387.2,-191 366.2,-191 363.2,-187 269.8,-187 269.8,-151 390.2,-151 390.2,-187"/>
<text text-anchor="middle" x="330" y="-164.8" font-family="Times,serif" font-size="14.00">MstvendorModule</text>
</g>
<!-- MstvendorComponent&#45;&gt;MstvendorModule -->
<g id="edge1" class="edge">
<title>MstvendorComponent&#45;&gt;MstvendorModule</title>
<path fill="none" stroke="black" d="M290.95,-122.11C290.95,-122.11 290.95,-140.99 290.95,-140.99"/>
<polygon fill="black" stroke="black" points="287.45,-140.99 290.95,-150.99 294.45,-140.99 287.45,-140.99"/>
</g>
<!-- VcdhelpComponent -->
<g id="node2" class="node">
<title>VcdhelpComponent</title>
<polygon fill="#ffffb3" stroke="black" points="152.26,-122 23.74,-122 23.74,-86 152.26,-86 152.26,-122"/>
<text text-anchor="middle" x="88" y="-99.8" font-family="Times,serif" font-size="14.00">VcdhelpComponent</text>
</g>
<!-- VcdhelpComponent&#45;&gt;MstvendorModule -->
<g id="edge2" class="edge">
<title>VcdhelpComponent&#45;&gt;MstvendorModule</title>
<path fill="none" stroke="black" d="M88,-122.11C88,-141.34 88,-169 88,-169 88,-169 259.87,-169 259.87,-169"/>
<polygon fill="black" stroke="black" points="259.87,-172.5 269.87,-169 259.87,-165.5 259.87,-172.5"/>
</g>
<!-- CoreModule -->
<g id="node4" class="node">
<title>CoreModule</title>
<polygon fill="#8dd3c7" stroke="black" points="606.26,-122 603.26,-126 582.26,-126 579.26,-122 519.74,-122 519.74,-86 606.26,-86 606.26,-122"/>
<text text-anchor="middle" x="563" y="-99.8" font-family="Times,serif" font-size="14.00">CoreModule</text>
</g>
<!-- CoreModule&#45;&gt;MstvendorModule -->
<g id="edge3" class="edge">
<title>CoreModule&#45;&gt;MstvendorModule</title>
<path fill="none" stroke="black" d="M563,-122.11C563,-141.34 563,-169 563,-169 563,-169 400.31,-169 400.31,-169"/>
<polygon fill="black" stroke="black" points="400.31,-165.5 390.31,-169 400.31,-172.5 400.31,-165.5"/>
</g>
<!-- MstvendorRoutingModule -->
<g id="node5" class="node">
<title>MstvendorRoutingModule</title>
<polygon fill="#8dd3c7" stroke="black" points="501.82,-122 498.82,-126 477.82,-126 474.82,-122 336.18,-122 336.18,-86 501.82,-86 501.82,-122"/>
<text text-anchor="middle" x="419" y="-99.8" font-family="Times,serif" font-size="14.00">MstvendorRoutingModule</text>
</g>
<!-- MstvendorRoutingModule&#45;&gt;MstvendorModule -->
<g id="edge4" class="edge">
<title>MstvendorRoutingModule&#45;&gt;MstvendorModule</title>
<path fill="none" stroke="black" d="M363.22,-122.11C363.22,-122.11 363.22,-140.99 363.22,-140.99"/>
<polygon fill="black" stroke="black" points="359.72,-140.99 363.22,-150.99 366.72,-140.99 359.72,-140.99"/>
</g>
</g>
</svg>
