<?xml version="1.0" encoding="UTF-8" standalone="no"?>
<!DOCTYPE svg PUBLIC "-//W3C//DTD SVG 1.1//EN"
 "http://www.w3.org/Graphics/SVG/1.1/DTD/svg11.dtd">
<!-- Generated by graphviz version 2.47.0 (20210316.0004)
 -->
<!-- Title: dependencies Pages: 1 -->
<svg width="1361pt" height="211pt"
 viewBox="0.00 0.00 1361.00 211.00" xmlns="http://www.w3.org/2000/svg" xmlns:xlink="http://www.w3.org/1999/xlink">
<g id="graph0" class="graph" transform="scale(1 1) rotate(0) translate(4 207)">
<title>dependencies</title>
<polygon fill="white" stroke="transparent" points="-4,4 -4,-207 1357,-207 1357,4 -4,4"/>
<text text-anchor="start" x="655.51" y="-42.4" font-family="sans-serif" font-weight="bold" font-size="14.00">Legend</text>
<polygon fill="#ffffb3" stroke="transparent" points="442.5,-10 442.5,-30 462.5,-30 462.5,-10 442.5,-10"/>
<text text-anchor="start" x="466.13" y="-15.4" font-family="sans-serif" font-size="14.00"> &#160;Declarations</text>
<polygon fill="#8dd3c7" stroke="transparent" points="555.5,-10 555.5,-30 575.5,-30 575.5,-10 555.5,-10"/>
<text text-anchor="start" x="579.23" y="-15.4" font-family="sans-serif" font-size="14.00"> &#160;Module</text>
<polygon fill="#80b1d3" stroke="transparent" points="641.5,-10 641.5,-30 661.5,-30 661.5,-10 641.5,-10"/>
<text text-anchor="start" x="665.28" y="-15.4" font-family="sans-serif" font-size="14.00"> &#160;Bootstrap</text>
<polygon fill="#fdb462" stroke="transparent" points="738.5,-10 738.5,-30 758.5,-30 758.5,-10 738.5,-10"/>
<text text-anchor="start" x="762.17" y="-15.4" font-family="sans-serif" font-size="14.00"> &#160;Providers</text>
<polygon fill="#fb8072" stroke="transparent" points="834.5,-10 834.5,-30 854.5,-30 854.5,-10 834.5,-10"/>
<text text-anchor="start" x="858.23" y="-15.4" font-family="sans-serif" font-size="14.00"> &#160;Exports</text>
<g id="clust1" class="cluster">
<title>cluster_MstmemberModule</title>
<polygon fill="none" stroke="black" stroke-dasharray="1,5" points="8,-70 8,-195 1345,-195 1345,-70 8,-70"/>
</g>
<g id="clust2" class="cluster">
<title>cluster_MstmemberModule_declarations</title>
<polygon fill="none" stroke="black" points="317,-78 317,-130 1337,-130 1337,-78 317,-78"/>
</g>
<g id="clust10" class="cluster">
<title>cluster_MstmemberModule_imports</title>
<polygon fill="none" stroke="black" points="16,-78 16,-130 309,-130 309,-78 16,-78"/>
</g>
<!-- AddressComponent -->
<g id="node1" class="node">
<title>AddressComponent</title>
<polygon fill="#ffffb3" stroke="black" points="1328.7,-122 1201.3,-122 1201.3,-86 1328.7,-86 1328.7,-122"/>
<text text-anchor="middle" x="1265" y="-99.8" font-family="Times,serif" font-size="14.00">AddressComponent</text>
</g>
<!-- MstmemberModule -->
<g id="node8" class="node">
<title>MstmemberModule</title>
<polygon fill="#8dd3c7" stroke="black" points="759.7,-187 756.7,-191 735.7,-191 732.7,-187 632.3,-187 632.3,-151 759.7,-151 759.7,-187"/>
<text text-anchor="middle" x="696" y="-164.8" font-family="Times,serif" font-size="14.00">MstmemberModule</text>
</g>
<!-- AddressComponent&#45;&gt;MstmemberModule -->
<g id="edge1" class="edge">
<title>AddressComponent&#45;&gt;MstmemberModule</title>
<path fill="none" stroke="black" d="M1265,-122.01C1265,-144.49 1265,-180 1265,-180 1265,-180 769.62,-180 769.62,-180"/>
<polygon fill="black" stroke="black" points="769.62,-176.5 759.62,-180 769.62,-183.5 769.62,-176.5"/>
</g>
<!-- AdredaComponent -->
<g id="node2" class="node">
<title>AdredaComponent</title>
<polygon fill="#ffffb3" stroke="black" points="1183.03,-122 1060.97,-122 1060.97,-86 1183.03,-86 1183.03,-122"/>
<text text-anchor="middle" x="1122" y="-99.8" font-family="Times,serif" font-size="14.00">AdredaComponent</text>
</g>
<!-- AdredaComponent&#45;&gt;MstmemberModule -->
<g id="edge2" class="edge">
<title>AdredaComponent&#45;&gt;MstmemberModule</title>
<path fill="none" stroke="black" d="M1122,-122.13C1122,-142.57 1122,-173 1122,-173 1122,-173 769.78,-173 769.78,-173"/>
<polygon fill="black" stroke="black" points="769.78,-169.5 759.78,-173 769.78,-176.5 769.78,-169.5"/>
</g>
<!-- EdahelpComponent -->
<g id="node3" class="node">
<title>EdahelpComponent</title>
<polygon fill="#ffffb3" stroke="black" points="1042.7,-122 915.3,-122 915.3,-86 1042.7,-86 1042.7,-122"/>
<text text-anchor="middle" x="979" y="-99.8" font-family="Times,serif" font-size="14.00">EdahelpComponent</text>
</g>
<!-- EdahelpComponent&#45;&gt;MstmemberModule -->
<g id="edge3" class="edge">
<title>EdahelpComponent&#45;&gt;MstmemberModule</title>
<path fill="none" stroke="black" d="M979,-122.27C979,-140.56 979,-166 979,-166 979,-166 769.86,-166 769.86,-166"/>
<polygon fill="black" stroke="black" points="769.86,-162.5 759.86,-166 769.86,-169.5 769.86,-162.5"/>
</g>
<!-- EdatblComponent -->
<g id="node4" class="node">
<title>EdatblComponent</title>
<polygon fill="#ffffb3" stroke="black" points="896.88,-122 779.12,-122 779.12,-86 896.88,-86 896.88,-122"/>
<text text-anchor="middle" x="838" y="-99.8" font-family="Times,serif" font-size="14.00">EdatblComponent</text>
</g>
<!-- EdatblComponent&#45;&gt;MstmemberModule -->
<g id="edge4" class="edge">
<title>EdatblComponent&#45;&gt;MstmemberModule</title>
<path fill="none" stroke="black" d="M838,-122.01C838,-138.05 838,-159 838,-159 838,-159 769.94,-159 769.94,-159"/>
<polygon fill="black" stroke="black" points="769.94,-155.5 759.94,-159 769.94,-162.5 769.94,-155.5"/>
</g>
<!-- McdhelpComponent -->
<g id="node5" class="node">
<title>McdhelpComponent</title>
<polygon fill="#ffffb3" stroke="black" points="761.6,-122 630.4,-122 630.4,-86 761.6,-86 761.6,-122"/>
<text text-anchor="middle" x="696" y="-99.8" font-family="Times,serif" font-size="14.00">McdhelpComponent</text>
</g>
<!-- McdhelpComponent&#45;&gt;MstmemberModule -->
<g id="edge5" class="edge">
<title>McdhelpComponent&#45;&gt;MstmemberModule</title>
<path fill="none" stroke="black" d="M696,-122.11C696,-122.11 696,-140.99 696,-140.99"/>
<polygon fill="black" stroke="black" points="692.5,-140.99 696,-150.99 699.5,-140.99 692.5,-140.99"/>
</g>
<!-- McdtblComponent -->
<g id="node6" class="node">
<title>McdtblComponent</title>
<polygon fill="#ffffb3" stroke="black" points="612.77,-122 491.23,-122 491.23,-86 612.77,-86 612.77,-122"/>
<text text-anchor="middle" x="552" y="-99.8" font-family="Times,serif" font-size="14.00">McdtblComponent</text>
</g>
<!-- McdtblComponent&#45;&gt;MstmemberModule -->
<g id="edge6" class="edge">
<title>McdtblComponent&#45;&gt;MstmemberModule</title>
<path fill="none" stroke="black" d="M552,-122.01C552,-138.05 552,-159 552,-159 552,-159 622,-159 622,-159"/>
<polygon fill="black" stroke="black" points="622,-162.5 632,-159 622,-155.5 622,-162.5"/>
</g>
<!-- MstmemberComponent -->
<g id="node7" class="node">
<title>MstmemberComponent</title>
<polygon fill="#ffffb3" stroke="black" points="473.48,-122 324.52,-122 324.52,-86 473.48,-86 473.48,-122"/>
<text text-anchor="middle" x="399" y="-99.8" font-family="Times,serif" font-size="14.00">MstmemberComponent</text>
</g>
<!-- MstmemberComponent&#45;&gt;MstmemberModule -->
<g id="edge7" class="edge">
<title>MstmemberComponent&#45;&gt;MstmemberModule</title>
<path fill="none" stroke="black" d="M399,-122.27C399,-140.56 399,-166 399,-166 399,-166 622.29,-166 622.29,-166"/>
<polygon fill="black" stroke="black" points="622.29,-169.5 632.29,-166 622.29,-162.5 622.29,-169.5"/>
</g>
<!-- CoreModule -->
<g id="node9" class="node">
<title>CoreModule</title>
<polygon fill="#8dd3c7" stroke="black" points="301.26,-122 298.26,-126 277.26,-126 274.26,-122 214.74,-122 214.74,-86 301.26,-86 301.26,-122"/>
<text text-anchor="middle" x="258" y="-99.8" font-family="Times,serif" font-size="14.00">CoreModule</text>
</g>
<!-- CoreModule&#45;&gt;MstmemberModule -->
<g id="edge8" class="edge">
<title>CoreModule&#45;&gt;MstmemberModule</title>
<path fill="none" stroke="black" d="M258,-122.13C258,-142.57 258,-173 258,-173 258,-173 622.31,-173 622.31,-173"/>
<polygon fill="black" stroke="black" points="622.31,-176.5 632.31,-173 622.31,-169.5 622.31,-176.5"/>
</g>
<!-- MstmemberRoutingModule -->
<g id="node10" class="node">
<title>MstmemberRoutingModule</title>
<polygon fill="#8dd3c7" stroke="black" points="196.32,-122 193.32,-126 172.32,-126 169.32,-122 23.68,-122 23.68,-86 196.32,-86 196.32,-122"/>
<text text-anchor="middle" x="110" y="-99.8" font-family="Times,serif" font-size="14.00">MstmemberRoutingModule</text>
</g>
<!-- MstmemberRoutingModule&#45;&gt;MstmemberModule -->
<g id="edge9" class="edge">
<title>MstmemberRoutingModule&#45;&gt;MstmemberModule</title>
<path fill="none" stroke="black" d="M110,-122.01C110,-144.49 110,-180 110,-180 110,-180 622.17,-180 622.17,-180"/>
<polygon fill="black" stroke="black" points="622.17,-183.5 632.17,-180 622.17,-176.5 622.17,-183.5"/>
</g>
</g>
</svg>
