<?xml version="1.0" encoding="UTF-8" standalone="no"?>
<!DOCTYPE svg PUBLIC "-//W3C//DTD SVG 1.1//EN"
 "http://www.w3.org/Graphics/SVG/1.1/DTD/svg11.dtd">
<!-- Generated by graphviz version 2.47.0 (20210316.0004)
 -->
<!-- Title: dependencies Pages: 1 -->
<svg width="1361pt" height="211pt"
 viewBox="0.00 0.00 1361.00 211.00" xmlns="http://www.w3.org/2000/svg" xmlns:xlink="http://www.w3.org/1999/xlink">
<g id="graph0" class="graph" transform="scale(1 1) rotate(0) translate(4 207)">
<title>dependencies</title>
<polygon fill="white" stroke="transparent" points="-4,4 -4,-207 1357,-207 1357,4 -4,4"/>
<text text-anchor="start" x="655.51" y="-42.4" font-family="sans-serif" font-weight="bold" font-size="14.00">Legend</text>
<polygon fill="#ffffb3" stroke="transparent" points="442.5,-10 442.5,-30 462.5,-30 462.5,-10 442.5,-10"/>
<text text-anchor="start" x="466.13" y="-15.4" font-family="sans-serif" font-size="14.00"> &#160;Declarations</text>
<polygon fill="#8dd3c7" stroke="transparent" points="555.5,-10 555.5,-30 575.5,-30 575.5,-10 555.5,-10"/>
<text text-anchor="start" x="579.23" y="-15.4" font-family="sans-serif" font-size="14.00"> &#160;Module</text>
<polygon fill="#80b1d3" stroke="transparent" points="641.5,-10 641.5,-30 661.5,-30 661.5,-10 641.5,-10"/>
<text text-anchor="start" x="665.28" y="-15.4" font-family="sans-serif" font-size="14.00"> &#160;Bootstrap</text>
<polygon fill="#fdb462" stroke="transparent" points="738.5,-10 738.5,-30 758.5,-30 758.5,-10 738.5,-10"/>
<text text-anchor="start" x="762.17" y="-15.4" font-family="sans-serif" font-size="14.00"> &#160;Providers</text>
<polygon fill="#fb8072" stroke="transparent" points="834.5,-10 834.5,-30 854.5,-30 854.5,-10 834.5,-10"/>
<text text-anchor="start" x="858.23" y="-15.4" font-family="sans-serif" font-size="14.00"> &#160;Exports</text>
<g id="clust1" class="cluster">
<title>cluster_MstmemberModule</title>
<polygon fill="none" stroke="black" stroke-dasharray="1,5" points="8,-70 8,-195 1345,-195 1345,-70 8,-70"/>
</g>
<g id="clust10" class="cluster">
<title>cluster_MstmemberModule_imports</title>
<polygon fill="none" stroke="black" points="1044,-78 1044,-130 1337,-130 1337,-78 1044,-78"/>
</g>
<g id="clust2" class="cluster">
<title>cluster_MstmemberModule_declarations</title>
<polygon fill="none" stroke="black" points="16,-78 16,-130 1036,-130 1036,-78 16,-78"/>
</g>
<!-- AddressComponent -->
<g id="node1" class="node">
<title>AddressComponent</title>
<polygon fill="#ffffb3" stroke="black" points="1027.7,-122 900.3,-122 900.3,-86 1027.7,-86 1027.7,-122"/>
<text text-anchor="middle" x="964" y="-99.8" font-family="Times,serif" font-size="14.00">AddressComponent</text>
</g>
<!-- MstmemberModule -->
<g id="node8" class="node">
<title>MstmemberModule</title>
<polygon fill="#8dd3c7" stroke="black" points="741.7,-187 738.7,-191 717.7,-191 714.7,-187 614.3,-187 614.3,-151 741.7,-151 741.7,-187"/>
<text text-anchor="middle" x="678" y="-164.8" font-family="Times,serif" font-size="14.00">MstmemberModule</text>
</g>
<!-- AddressComponent&#45;&gt;MstmemberModule -->
<g id="edge1" class="edge">
<title>AddressComponent&#45;&gt;MstmemberModule</title>
<path fill="none" stroke="black" d="M964,-122.27C964,-140.56 964,-166 964,-166 964,-166 751.83,-166 751.83,-166"/>
<polygon fill="black" stroke="black" points="751.83,-162.5 741.83,-166 751.83,-169.5 751.83,-162.5"/>
</g>
<!-- AdredaComponent -->
<g id="node2" class="node">
<title>AdredaComponent</title>
<polygon fill="#ffffb3" stroke="black" points="882.03,-122 759.97,-122 759.97,-86 882.03,-86 882.03,-122"/>
<text text-anchor="middle" x="821" y="-99.8" font-family="Times,serif" font-size="14.00">AdredaComponent</text>
</g>
<!-- AdredaComponent&#45;&gt;MstmemberModule -->
<g id="edge2" class="edge">
<title>AdredaComponent&#45;&gt;MstmemberModule</title>
<path fill="none" stroke="black" d="M821,-122.01C821,-138.05 821,-159 821,-159 821,-159 751.97,-159 751.97,-159"/>
<polygon fill="black" stroke="black" points="751.97,-155.5 741.97,-159 751.97,-162.5 751.97,-155.5"/>
</g>
<!-- EdahelpComponent -->
<g id="node3" class="node">
<title>EdahelpComponent</title>
<polygon fill="#ffffb3" stroke="black" points="741.7,-122 614.3,-122 614.3,-86 741.7,-86 741.7,-122"/>
<text text-anchor="middle" x="678" y="-99.8" font-family="Times,serif" font-size="14.00">EdahelpComponent</text>
</g>
<!-- EdahelpComponent&#45;&gt;MstmemberModule -->
<g id="edge3" class="edge">
<title>EdahelpComponent&#45;&gt;MstmemberModule</title>
<path fill="none" stroke="black" d="M678,-122.11C678,-122.11 678,-140.99 678,-140.99"/>
<polygon fill="black" stroke="black" points="674.5,-140.99 678,-150.99 681.5,-140.99 674.5,-140.99"/>
</g>
<!-- EdatblComponent -->
<g id="node4" class="node">
<title>EdatblComponent</title>
<polygon fill="#ffffb3" stroke="black" points="595.88,-122 478.12,-122 478.12,-86 595.88,-86 595.88,-122"/>
<text text-anchor="middle" x="537" y="-99.8" font-family="Times,serif" font-size="14.00">EdatblComponent</text>
</g>
<!-- EdatblComponent&#45;&gt;MstmemberModule -->
<g id="edge4" class="edge">
<title>EdatblComponent&#45;&gt;MstmemberModule</title>
<path fill="none" stroke="black" d="M537,-122.01C537,-138.05 537,-159 537,-159 537,-159 604.1,-159 604.1,-159"/>
<polygon fill="black" stroke="black" points="604.1,-162.5 614.1,-159 604.1,-155.5 604.1,-162.5"/>
</g>
<!-- McdhelpComponent -->
<g id="node5" class="node">
<title>McdhelpComponent</title>
<polygon fill="#ffffb3" stroke="black" points="460.6,-122 329.4,-122 329.4,-86 460.6,-86 460.6,-122"/>
<text text-anchor="middle" x="395" y="-99.8" font-family="Times,serif" font-size="14.00">McdhelpComponent</text>
</g>
<!-- McdhelpComponent&#45;&gt;MstmemberModule -->
<g id="edge5" class="edge">
<title>McdhelpComponent&#45;&gt;MstmemberModule</title>
<path fill="none" stroke="black" d="M395,-122.27C395,-140.56 395,-166 395,-166 395,-166 604.14,-166 604.14,-166"/>
<polygon fill="black" stroke="black" points="604.14,-169.5 614.14,-166 604.14,-162.5 604.14,-169.5"/>
</g>
<!-- McdtblComponent -->
<g id="node6" class="node">
<title>McdtblComponent</title>
<polygon fill="#ffffb3" stroke="black" points="311.77,-122 190.23,-122 190.23,-86 311.77,-86 311.77,-122"/>
<text text-anchor="middle" x="251" y="-99.8" font-family="Times,serif" font-size="14.00">McdtblComponent</text>
</g>
<!-- McdtblComponent&#45;&gt;MstmemberModule -->
<g id="edge6" class="edge">
<title>McdtblComponent&#45;&gt;MstmemberModule</title>
<path fill="none" stroke="black" d="M251,-122.13C251,-142.57 251,-173 251,-173 251,-173 604.07,-173 604.07,-173"/>
<polygon fill="black" stroke="black" points="604.07,-176.5 614.07,-173 604.07,-169.5 604.07,-176.5"/>
</g>
<!-- MstmemberComponent -->
<g id="node7" class="node">
<title>MstmemberComponent</title>
<polygon fill="#ffffb3" stroke="black" points="172.48,-122 23.52,-122 23.52,-86 172.48,-86 172.48,-122"/>
<text text-anchor="middle" x="98" y="-99.8" font-family="Times,serif" font-size="14.00">MstmemberComponent</text>
</g>
<!-- MstmemberComponent&#45;&gt;MstmemberModule -->
<g id="edge7" class="edge">
<title>MstmemberComponent&#45;&gt;MstmemberModule</title>
<path fill="none" stroke="black" d="M98,-122.01C98,-144.49 98,-180 98,-180 98,-180 604.27,-180 604.27,-180"/>
<polygon fill="black" stroke="black" points="604.27,-183.5 614.27,-180 604.27,-176.5 604.27,-183.5"/>
</g>
<!-- CoreModule -->
<g id="node9" class="node">
<title>CoreModule</title>
<polygon fill="#8dd3c7" stroke="black" points="1329.26,-122 1326.26,-126 1305.26,-126 1302.26,-122 1242.74,-122 1242.74,-86 1329.26,-86 1329.26,-122"/>
<text text-anchor="middle" x="1286" y="-99.8" font-family="Times,serif" font-size="14.00">CoreModule</text>
</g>
<!-- CoreModule&#45;&gt;MstmemberModule -->
<g id="edge8" class="edge">
<title>CoreModule&#45;&gt;MstmemberModule</title>
<path fill="none" stroke="black" d="M1286,-122.01C1286,-144.49 1286,-180 1286,-180 1286,-180 751.63,-180 751.63,-180"/>
<polygon fill="black" stroke="black" points="751.63,-176.5 741.63,-180 751.63,-183.5 751.63,-176.5"/>
</g>
<!-- MstmemberRoutingModule -->
<g id="node10" class="node">
<title>MstmemberRoutingModule</title>
<polygon fill="#8dd3c7" stroke="black" points="1224.32,-122 1221.32,-126 1200.32,-126 1197.32,-122 1051.68,-122 1051.68,-86 1224.32,-86 1224.32,-122"/>
<text text-anchor="middle" x="1138" y="-99.8" font-family="Times,serif" font-size="14.00">MstmemberRoutingModule</text>
</g>
<!-- MstmemberRoutingModule&#45;&gt;MstmemberModule -->
<g id="edge9" class="edge">
<title>MstmemberRoutingModule&#45;&gt;MstmemberModule</title>
<path fill="none" stroke="black" d="M1138,-122.13C1138,-142.57 1138,-173 1138,-173 1138,-173 751.96,-173 751.96,-173"/>
<polygon fill="black" stroke="black" points="751.96,-169.5 741.96,-173 751.96,-176.5 751.96,-169.5"/>
</g>
</g>
</svg>
