<?xml version="1.0" encoding="UTF-8" standalone="no"?>
<!DOCTYPE svg PUBLIC "-//W3C//DTD SVG 1.1//EN"
 "http://www.w3.org/Graphics/SVG/1.1/DTD/svg11.dtd">
<!-- Generated by graphviz version 2.47.0 (20210316.0004)
 -->
<!-- Title: dependencies Pages: 1 -->
<svg width="615pt" height="211pt"
 viewBox="0.00 0.00 615.00 211.00" xmlns="http://www.w3.org/2000/svg" xmlns:xlink="http://www.w3.org/1999/xlink">
<g id="graph0" class="graph" transform="scale(1 1) rotate(0) translate(4 207)">
<title>dependencies</title>
<polygon fill="white" stroke="transparent" points="-4,4 -4,-207 611,-207 611,4 -4,4"/>
<text text-anchor="start" x="282.51" y="-42.4" font-family="sans-serif" font-weight="bold" font-size="14.00">Legend</text>
<polygon fill="#ffffb3" stroke="transparent" points="69.5,-10 69.5,-30 89.5,-30 89.5,-10 69.5,-10"/>
<text text-anchor="start" x="93.13" y="-15.4" font-family="sans-serif" font-size="14.00"> &#160;Declarations</text>
<polygon fill="#8dd3c7" stroke="transparent" points="182.5,-10 182.5,-30 202.5,-30 202.5,-10 182.5,-10"/>
<text text-anchor="start" x="206.23" y="-15.4" font-family="sans-serif" font-size="14.00"> &#160;Module</text>
<polygon fill="#80b1d3" stroke="transparent" points="268.5,-10 268.5,-30 288.5,-30 288.5,-10 268.5,-10"/>
<text text-anchor="start" x="292.28" y="-15.4" font-family="sans-serif" font-size="14.00"> &#160;Bootstrap</text>
<polygon fill="#fdb462" stroke="transparent" points="365.5,-10 365.5,-30 385.5,-30 385.5,-10 365.5,-10"/>
<text text-anchor="start" x="389.17" y="-15.4" font-family="sans-serif" font-size="14.00"> &#160;Providers</text>
<polygon fill="#fb8072" stroke="transparent" points="461.5,-10 461.5,-30 481.5,-30 481.5,-10 461.5,-10"/>
<text text-anchor="start" x="485.23" y="-15.4" font-family="sans-serif" font-size="14.00"> &#160;Exports</text>
<g id="clust1" class="cluster">
<title>cluster_FrmtreatModule</title>
<polygon fill="none" stroke="black" stroke-dasharray="1,5" points="8,-70 8,-195 599,-195 599,-70 8,-70"/>
</g>
<g id="clust5" class="cluster">
<title>cluster_FrmtreatModule_imports</title>
<polygon fill="none" stroke="black" points="318,-78 318,-130 591,-130 591,-78 318,-78"/>
</g>
<g id="clust2" class="cluster">
<title>cluster_FrmtreatModule_declarations</title>
<polygon fill="none" stroke="black" points="16,-78 16,-130 310,-130 310,-78 16,-78"/>
</g>
<!-- FrmtreatComponent -->
<g id="node1" class="node">
<title>FrmtreatComponent</title>
<polygon fill="#ffffb3" stroke="black" points="301.54,-122 172.46,-122 172.46,-86 301.54,-86 301.54,-122"/>
<text text-anchor="middle" x="237" y="-99.8" font-family="Times,serif" font-size="14.00">FrmtreatComponent</text>
</g>
<!-- FrmtreatModule -->
<g id="node3" class="node">
<title>FrmtreatModule</title>
<polygon fill="#8dd3c7" stroke="black" points="372.75,-187 369.75,-191 348.75,-191 345.75,-187 265.25,-187 265.25,-151 372.75,-151 372.75,-187"/>
<text text-anchor="middle" x="319" y="-164.8" font-family="Times,serif" font-size="14.00">FrmtreatModule</text>
</g>
<!-- FrmtreatComponent&#45;&gt;FrmtreatModule -->
<g id="edge1" class="edge">
<title>FrmtreatComponent&#45;&gt;FrmtreatModule</title>
<path fill="none" stroke="black" d="M283.45,-122.11C283.45,-122.11 283.45,-140.99 283.45,-140.99"/>
<polygon fill="black" stroke="black" points="279.95,-140.99 283.45,-150.99 286.95,-140.99 279.95,-140.99"/>
</g>
<!-- TrtdetailComponent -->
<g id="node2" class="node">
<title>TrtdetailComponent</title>
<polygon fill="#ffffb3" stroke="black" points="153.54,-122 24.46,-122 24.46,-86 153.54,-86 153.54,-122"/>
<text text-anchor="middle" x="89" y="-99.8" font-family="Times,serif" font-size="14.00">TrtdetailComponent</text>
</g>
<!-- TrtdetailComponent&#45;&gt;FrmtreatModule -->
<g id="edge2" class="edge">
<title>TrtdetailComponent&#45;&gt;FrmtreatModule</title>
<path fill="none" stroke="black" d="M89,-122.11C89,-141.34 89,-169 89,-169 89,-169 255.08,-169 255.08,-169"/>
<polygon fill="black" stroke="black" points="255.08,-172.5 265.08,-169 255.08,-165.5 255.08,-172.5"/>
</g>
<!-- CoreModule -->
<g id="node4" class="node">
<title>CoreModule</title>
<polygon fill="#8dd3c7" stroke="black" points="583.26,-122 580.26,-126 559.26,-126 556.26,-122 496.74,-122 496.74,-86 583.26,-86 583.26,-122"/>
<text text-anchor="middle" x="540" y="-99.8" font-family="Times,serif" font-size="14.00">CoreModule</text>
</g>
<!-- CoreModule&#45;&gt;FrmtreatModule -->
<g id="edge3" class="edge">
<title>CoreModule&#45;&gt;FrmtreatModule</title>
<path fill="none" stroke="black" d="M540,-122.11C540,-141.34 540,-169 540,-169 540,-169 382.78,-169 382.78,-169"/>
<polygon fill="black" stroke="black" points="382.78,-165.5 372.78,-169 382.78,-172.5 382.78,-165.5"/>
</g>
<!-- FrmtreatRoutingModule -->
<g id="node5" class="node">
<title>FrmtreatRoutingModule</title>
<polygon fill="#8dd3c7" stroke="black" points="478.37,-122 475.37,-126 454.37,-126 451.37,-122 325.63,-122 325.63,-86 478.37,-86 478.37,-122"/>
<text text-anchor="middle" x="402" y="-99.8" font-family="Times,serif" font-size="14.00">FrmtreatRoutingModule</text>
</g>
<!-- FrmtreatRoutingModule&#45;&gt;FrmtreatModule -->
<g id="edge4" class="edge">
<title>FrmtreatRoutingModule&#45;&gt;FrmtreatModule</title>
<path fill="none" stroke="black" d="M349.22,-122.11C349.22,-122.11 349.22,-140.99 349.22,-140.99"/>
<polygon fill="black" stroke="black" points="345.72,-140.99 349.22,-150.99 352.72,-140.99 345.72,-140.99"/>
</g>
</g>
</svg>
